<svg width="165" height="952" viewBox="0 0 165 952" fill="none" xmlns="http://www.w3.org/2000/svg">
<circle cx="78" cy="148.5" r="31" fill="#F04C77"/>
<circle cx="78" cy="366.5" r="31" fill="#EF87B8"/>
<circle cx="78" cy="585.5" r="31" fill="#5DCEDA"/>
<circle cx="78" cy="805.5" r="31" fill="#D8CF4C"/>
<path d="M161.098 146.253C162.428 147.029 162.419 148.954 161.081 149.717L139.271 162.169C137.934 162.932 136.272 161.962 136.279 160.422L136.401 135.308C136.409 133.768 138.08 132.814 139.41 133.59L161.098 146.253Z" fill="#F04C77"/>
<path d="M161.098 364.253C162.428 365.029 162.419 366.954 161.081 367.717L139.271 380.169C137.934 380.932 136.272 379.962 136.279 378.422L136.401 353.308C136.409 351.768 138.08 350.814 139.41 351.59L161.098 364.253Z" fill="#EF87B8"/>
<path d="M159.098 583.253C160.428 584.029 160.419 585.954 159.081 586.717L137.271 599.169C135.934 599.932 134.272 598.962 134.279 597.422L134.401 572.308C134.409 570.768 136.08 569.814 137.41 570.59L159.098 583.253Z" fill="#5DCEDA"/>
<path d="M161.098 803.253C162.428 804.029 162.419 805.954 161.081 806.717L139.271 819.169C137.934 819.932 136.272 818.962 136.279 817.422L136.401 792.308C136.409 790.768 138.08 789.814 139.41 790.59L161.098 803.253Z" fill="#D8CF4C"/>
<path d="M39.9995 50.5V0.5H1V58C1.4 87.6 25.8333 96 38 96.5H91C97.8 95.3 99.1663 100.667 98.9994 103.5V192C99.799 197.6 94.9996 199 92.5 199H37.5C9.9 201.4 1.66667 225.333 1 237V277.5C0.6 305.1 23.8333 313.333 35.5 314L91.5 314.5C96.7 314.1 97.6662 319.667 97.4993 322.5L98 411.5C98.8 416.7 94.6667 418 92.5 418H37C9.8 419.2 2 443.167 1.5 455V496C3.5 523.6 27 532.167 38.5 533H92.5C97.7 533 98.3333 537.333 98 539.5V632C98.4 637.2 93.5 638.167 91 638H36.5C10.9 639.6 1.83333 662.333 0.5 673.5V714C2.1 743.2 24.8333 751.5 36 752L92.5 753C97.3 751.8 99.1667 755.833 99.5 758V849.5C99.5 855.5 94.8333 856.667 92.5 856.5H35C10.2 858.9 1.66667 881.833 0.5 893V951.5H38.4993V900.5C38.0993 894.9 42.6659 893.167 44.9993 893H89.4993C124.5 893 136 875 137.999 859.5V750C131.999 720.4 105.499 714.667 92.9993 715.5H46.9993C40.9993 716.3 39.1659 712.167 38.9993 710V683C38.9993 677.4 43.9993 675.667 46.4993 675.5H96.4993C125.699 678.3 137.999 652.5 137.999 640V527.5C133 498.5 105.499 495.5 94.4993 496H46.4993C41.2993 496 39.9993 491.333 39.9993 489V461.5C39.5993 455.9 44.1659 454.833 46.4993 455H97.4993C127.499 456.2 137.333 432.5 138.499 420.5V314C134.499 286.4 110.499 277.5 98.9994 276.5H45.4994C40.2995 277.7 39.3328 273.667 39.4994 271.5C39.3328 264 39.0994 248 39.4994 244C39.8994 240 43.6661 238.667 45.4994 238.5H98.9994C127.399 240.5 137.166 218 138.499 206.5V94C132.899 63.2 104.499 57.1667 90.9994 58H45.9995C39.9995 58 39.4995 53 39.9995 50.5Z" fill="#606B71" stroke="black"/>
<path d="M20.4998 1.5V60.5C21.3331 66.3333 26.1998 77.8 38.9998 77C51.7998 76.2 84.9998 76.6667 99.9998 77C107 78.5 120.5 84.8 118.5 98V191.5C119.666 199.333 118.1 216.1 102.5 220.5C64.0998 220.5 42.4998 220.5 36.4998 220.5C31.1665 220.5 20.4998 224.7 20.4998 241.5V275C19.1665 281.5 20.7998 294.9 37.9998 296.5H98C104.833 297.167 118.5 301.9 118.5 315.5V417.5C118.667 422 116.8 432 108 436H38C32.6667 436.667 21.9 440.4 21.5 450V495.5C22.3333 501.333 27.7 513 42.5 513H96.5C101.833 513.167 113.3 516.4 116.5 528V639.5C116.667 643.333 114 651.9 102 655.5H34.5C29.6667 656.333 20.5 661.5 22.5 675.5V716C21.8333 721.667 23.6 733.1 36 733.5H99C104.667 733.167 116.7 736 119.5 750V858.5C119 863.167 115.8 872.7 107 873.5H33C28 874.833 18.7 880.4 21.5 892V950" stroke="white" stroke-width="3" stroke-dasharray="10 10"/>
<path d="M68.06 157.734C66.6733 157.734 65.46 157.483 64.42 156.98C63.38 156.477 62.574 155.775 62.002 154.874C61.4473 153.955 61.17 152.898 61.17 151.702C61.17 151.459 61.1873 151.199 61.222 150.922C61.274 150.645 61.3087 150.411 61.326 150.22L62.132 145.02C62.3227 143.772 62.7733 142.697 63.484 141.796C64.1947 140.895 65.096 140.201 66.188 139.716C67.28 139.231 68.4933 138.988 69.828 138.988C71.2493 138.988 72.4713 139.239 73.494 139.742C74.534 140.227 75.3313 140.921 75.886 141.822C76.4407 142.706 76.718 143.755 76.718 144.968C76.718 145.263 76.7007 145.531 76.666 145.774C76.6487 146.017 76.6227 146.242 76.588 146.45L75.782 151.676C75.6087 152.907 75.1493 153.981 74.404 154.9C73.6587 155.801 72.7313 156.503 71.622 157.006C70.5127 157.491 69.3253 157.734 68.06 157.734ZM68.346 153.574C68.7967 153.574 69.2127 153.479 69.594 153.288C69.9753 153.097 70.296 152.829 70.556 152.482C70.8333 152.118 71.0067 151.685 71.076 151.182L71.882 146.06C71.8993 145.991 71.9167 145.887 71.934 145.748C71.9513 145.592 71.96 145.453 71.96 145.332C71.96 144.933 71.8647 144.569 71.674 144.24C71.5007 143.911 71.2407 143.642 70.894 143.434C70.5473 143.226 70.1227 143.122 69.62 143.122C69.1347 143.122 68.684 143.226 68.268 143.434C67.8693 143.625 67.54 143.902 67.28 144.266C67.02 144.63 66.8467 145.046 66.76 145.514L65.98 150.636C65.9627 150.705 65.9453 150.818 65.928 150.974C65.9107 151.113 65.902 151.243 65.902 151.364C65.902 151.78 65.9973 152.161 66.188 152.508C66.396 152.837 66.682 153.097 67.046 153.288C67.41 153.479 67.8433 153.574 68.346 153.574ZM76.4755 157.5L77.1255 153.314H80.4795L82.0135 143.486H78.9455L79.5955 139.3H87.4215L85.2115 153.314H88.2275L87.5775 157.5H76.4755Z" fill="white"/>
<path d="M66.06 375.734C64.6733 375.734 63.46 375.483 62.42 374.98C61.38 374.477 60.574 373.775 60.002 372.874C59.4473 371.955 59.17 370.898 59.17 369.702C59.17 369.459 59.1873 369.199 59.222 368.922C59.274 368.645 59.3087 368.411 59.326 368.22L60.132 363.02C60.3227 361.772 60.7733 360.697 61.484 359.796C62.1947 358.895 63.096 358.201 64.188 357.716C65.28 357.231 66.4933 356.988 67.828 356.988C69.2493 356.988 70.4713 357.239 71.494 357.742C72.534 358.227 73.3313 358.921 73.886 359.822C74.4407 360.706 74.718 361.755 74.718 362.968C74.718 363.263 74.7007 363.531 74.666 363.774C74.6487 364.017 74.6227 364.242 74.588 364.45L73.782 369.676C73.6087 370.907 73.1493 371.981 72.404 372.9C71.6587 373.801 70.7313 374.503 69.622 375.006C68.5127 375.491 67.3253 375.734 66.06 375.734ZM66.346 371.574C66.7967 371.574 67.2127 371.479 67.594 371.288C67.9753 371.097 68.296 370.829 68.556 370.482C68.8333 370.118 69.0067 369.685 69.076 369.182L69.882 364.06C69.8993 363.991 69.9167 363.887 69.934 363.748C69.9513 363.592 69.96 363.453 69.96 363.332C69.96 362.933 69.8647 362.569 69.674 362.24C69.5007 361.911 69.2407 361.642 68.894 361.434C68.5473 361.226 68.1227 361.122 67.62 361.122C67.1347 361.122 66.684 361.226 66.268 361.434C65.8693 361.625 65.54 361.902 65.28 362.266C65.02 362.63 64.8467 363.046 64.76 363.514L63.98 368.636C63.9627 368.705 63.9453 368.818 63.928 368.974C63.9107 369.113 63.902 369.243 63.902 369.364C63.902 369.78 63.9973 370.161 64.188 370.508C64.396 370.837 64.682 371.097 65.046 371.288C65.41 371.479 65.8433 371.574 66.346 371.574ZM79.1433 375.5C77.9993 375.5 77.1326 375.188 76.5433 374.564C75.9539 373.923 75.6593 373.151 75.6593 372.25C75.6593 371.557 75.8326 370.881 76.1793 370.222C76.5259 369.546 77.0979 368.948 77.8953 368.428L83.5373 364.788C83.9359 364.528 84.2566 364.242 84.4993 363.93C84.7419 363.601 84.8633 363.245 84.8633 362.864C84.8633 362.431 84.7073 362.093 84.3953 361.85C84.1006 361.59 83.7019 361.46 83.1993 361.46H77.9733L78.6493 357.326H84.2393C85.4526 357.326 86.4753 357.543 87.3073 357.976C88.1566 358.409 88.8066 358.999 89.2573 359.744C89.7079 360.472 89.9333 361.295 89.9333 362.214C89.9333 363.583 89.5866 364.762 88.8933 365.75C88.1999 366.738 87.2813 367.579 86.1373 368.272L82.0033 370.846C81.9339 370.881 81.8819 370.924 81.8473 370.976C81.8126 371.011 81.7953 371.063 81.7953 371.132C81.7953 371.201 81.8213 371.253 81.8733 371.288C81.9253 371.323 81.9946 371.34 82.0813 371.34L88.7373 371.314L88.0873 375.5H79.1433Z" fill="white"/>
<path d="M65.06 594.734C63.6733 594.734 62.46 594.483 61.42 593.98C60.38 593.477 59.574 592.775 59.002 591.874C58.4473 590.955 58.17 589.898 58.17 588.702C58.17 588.459 58.1873 588.199 58.222 587.922C58.274 587.645 58.3087 587.411 58.326 587.22L59.132 582.02C59.3227 580.772 59.7733 579.697 60.484 578.796C61.1947 577.895 62.096 577.201 63.188 576.716C64.28 576.231 65.4933 575.988 66.828 575.988C68.2493 575.988 69.4713 576.239 70.494 576.742C71.534 577.227 72.3313 577.921 72.886 578.822C73.4407 579.706 73.718 580.755 73.718 581.968C73.718 582.263 73.7007 582.531 73.666 582.774C73.6487 583.017 73.6227 583.242 73.588 583.45L72.782 588.676C72.6087 589.907 72.1493 590.981 71.404 591.9C70.6587 592.801 69.7313 593.503 68.622 594.006C67.5127 594.491 66.3253 594.734 65.06 594.734ZM65.346 590.574C65.7967 590.574 66.2127 590.479 66.594 590.288C66.9753 590.097 67.296 589.829 67.556 589.482C67.8333 589.118 68.0067 588.685 68.076 588.182L68.882 583.06C68.8993 582.991 68.9167 582.887 68.934 582.748C68.9513 582.592 68.96 582.453 68.96 582.332C68.96 581.933 68.8647 581.569 68.674 581.24C68.5007 580.911 68.2407 580.642 67.894 580.434C67.5473 580.226 67.1227 580.122 66.62 580.122C66.1347 580.122 65.684 580.226 65.268 580.434C64.8693 580.625 64.54 580.902 64.28 581.266C64.02 581.63 63.8467 582.046 63.76 582.514L62.98 587.636C62.9627 587.705 62.9453 587.818 62.928 587.974C62.9107 588.113 62.902 588.243 62.902 588.364C62.902 588.78 62.9973 589.161 63.188 589.508C63.396 589.837 63.682 590.097 64.046 590.288C64.41 590.479 64.8433 590.574 65.346 590.574ZM74.0873 594.5L74.7633 590.314H80.9773C81.3759 590.314 81.7226 590.245 82.0173 590.106C82.3119 589.967 82.5373 589.777 82.6933 589.534C82.8493 589.274 82.9273 588.979 82.9273 588.65C82.9273 588.355 82.8666 588.104 82.7453 587.896C82.6413 587.688 82.4679 587.523 82.2253 587.402C81.9999 587.281 81.7226 587.22 81.3933 587.22L76.1673 587.272L76.7913 583.398L82.2513 583.346C82.5979 583.329 82.9099 583.259 83.1873 583.138C83.4646 582.999 83.6726 582.809 83.8113 582.566C83.9673 582.323 84.0453 582.046 84.0453 581.734C84.0453 581.474 83.9846 581.249 83.8633 581.058C83.7593 580.867 83.6033 580.72 83.3953 580.616C83.1873 580.512 82.9273 580.46 82.6153 580.46H76.3753L77.0513 576.274L83.6813 576.3C84.6519 576.3 85.5273 576.491 86.3073 576.872C87.0873 577.253 87.7026 577.791 88.1533 578.484C88.6213 579.177 88.8553 579.983 88.8553 580.902C88.8553 581.751 88.6213 582.592 88.1533 583.424C87.6853 584.256 87.0353 584.897 86.2033 585.348C86.7579 585.712 87.1826 586.197 87.4773 586.804C87.7719 587.411 87.9193 588.061 87.9193 588.754C87.9193 589.811 87.6246 590.773 87.0353 591.64C86.4633 592.507 85.6919 593.2 84.7213 593.72C83.7506 594.24 82.6846 594.5 81.5233 594.5H74.0873Z" fill="white"/>
<path d="M65.06 814.734C63.6733 814.734 62.46 814.483 61.42 813.98C60.38 813.477 59.574 812.775 59.002 811.874C58.4473 810.955 58.17 809.898 58.17 808.702C58.17 808.459 58.1873 808.199 58.222 807.922C58.274 807.645 58.3087 807.411 58.326 807.22L59.132 802.02C59.3227 800.772 59.7733 799.697 60.484 798.796C61.1947 797.895 62.096 797.201 63.188 796.716C64.28 796.231 65.4933 795.988 66.828 795.988C68.2493 795.988 69.4713 796.239 70.494 796.742C71.534 797.227 72.3313 797.921 72.886 798.822C73.4407 799.706 73.718 800.755 73.718 801.968C73.718 802.263 73.7007 802.531 73.666 802.774C73.6487 803.017 73.6227 803.242 73.588 803.45L72.782 808.676C72.6087 809.907 72.1493 810.981 71.404 811.9C70.6587 812.801 69.7313 813.503 68.622 814.006C67.5127 814.491 66.3253 814.734 65.06 814.734ZM65.346 810.574C65.7967 810.574 66.2127 810.479 66.594 810.288C66.9753 810.097 67.296 809.829 67.556 809.482C67.8333 809.118 68.0067 808.685 68.076 808.182L68.882 803.06C68.8993 802.991 68.9167 802.887 68.934 802.748C68.9513 802.592 68.96 802.453 68.96 802.332C68.96 801.933 68.8647 801.569 68.674 801.24C68.5007 800.911 68.2407 800.642 67.894 800.434C67.5473 800.226 67.1227 800.122 66.62 800.122C66.1347 800.122 65.684 800.226 65.268 800.434C64.8693 800.625 64.54 800.902 64.28 801.266C64.02 801.63 63.8467 802.046 63.76 802.514L62.98 807.636C62.9627 807.705 62.9453 807.818 62.928 807.974C62.9107 808.113 62.902 808.243 62.902 808.364C62.902 808.78 62.9973 809.161 63.188 809.508C63.396 809.837 63.682 810.097 64.046 810.288C64.41 810.479 64.8433 810.574 65.346 810.574ZM82.6153 814.5L83.2133 810.808H78.4293C77.6493 810.808 76.9906 810.652 76.4533 810.34C75.9159 810.028 75.5086 809.612 75.2313 809.092C74.9539 808.572 74.8153 808.026 74.8153 807.454C74.8153 806.622 75.0579 805.842 75.5433 805.114L81.3933 796.3H86.6973L80.0933 806.024C80.0413 806.076 79.9979 806.137 79.9633 806.206C79.9459 806.275 79.9373 806.336 79.9373 806.388C79.9373 806.492 79.9719 806.579 80.0413 806.648C80.1279 806.717 80.2406 806.752 80.3793 806.752H83.8373L84.6433 801.5H89.3493L88.5433 806.752H90.7793L90.1553 810.782L87.9193 810.808L87.3213 814.474L82.6153 814.5Z" fill="white"/>
</svg>
